<?xml version="1.0" standalone="no"?><!DOCTYPE svg PUBLIC "-//W3C//DTD SVG 1.1//EN" "http://www.w3.org/Graphics/SVG/1.1/DTD/svg11.dtd"><svg t="1742375280034" class="icon" viewBox="0 0 1024 1024" version="1.1" xmlns="http://www.w3.org/2000/svg" p-id="5835" width="16" height="16" xmlns:xlink="http://www.w3.org/1999/xlink"><path d="M470.4 563.84h-81.28l-11.52 38.4h-72.96l87.04-232.32h78.08l87.68 232.32h-75.52zM455.68 512l-25.6-83.2-25.6 83.2z" p-id="5836" fill="#2c2c2c"></path><path d="M654.72 579.2h-48l-6.4 22.4H556.8L608 464.64h46.08L704 602.24h-44.16z m-8.96-29.44l-15.36-49.28-14.72 49.28z" p-id="5837" fill="#2c2c2c"></path><path d="M946.56 360.32a402.56 402.56 0 0 0-100.48-128L825.6 214.4l-77.44 55.68 25.6 21.76a291.84 291.84 0 0 1 108.8 224 327.68 327.68 0 0 1-283.52 305.28v-90.88L320 869.12 597.76 1008v-99.2a483.84 483.84 0 0 0 249.6-110.72A369.28 369.28 0 0 0 982.4 517.12a346.88 346.88 0 0 0-35.84-156.8zM128 517.12a327.68 327.68 0 0 1 283.52-305.28v91.52L696.96 160 411.52 17.28V128a483.2 483.2 0 0 0-249.6 110.72 369.28 369.28 0 0 0-135.68 278.4A376.96 376.96 0 0 0 188.16 819.2l24.32 17.92 64-64-20.48-19.2a296.96 296.96 0 0 1-128-236.8z" p-id="5838" fill="#2c2c2c"></path></svg>